<svg id="Calque_1" data-name="Calque 1" xmlns="http://www.w3.org/2000/svg" viewBox="0 0 28.35 28.35"><defs><style>.cls-1{fill:#358c2f;}</style></defs><title>insta</title><path class="cls-1" d="M28.9,9.17a10.39,10.39,0,0,0-.66-3.44A7.24,7.24,0,0,0,24.1,1.58,10.4,10.4,0,0,0,20.66.93c-1.51-.07-2-.09-5.84-.09S10.48.86,9,.93a10.4,10.4,0,0,0-3.44.66A7,7,0,0,0,3,3.22,6.94,6.94,0,0,0,1.38,5.73,10.42,10.42,0,0,0,.73,9.17C.66,10.68.64,11.16.64,15s0,4.33.09,5.84a10.41,10.41,0,0,0,.66,3.44A7,7,0,0,0,3,26.81a7,7,0,0,0,2.51,1.64A10.4,10.4,0,0,0,9,29.1c1.51.07,2,.09,5.84.09s4.33,0,5.84-.09a10.4,10.4,0,0,0,3.44-.66,7.24,7.24,0,0,0,4.15-4.15,10.38,10.38,0,0,0,.66-3.44c.07-1.51.09-2,.09-5.84s0-4.33-.09-5.84M26.35,20.74a7.84,7.84,0,0,1-.49,2.63,4.69,4.69,0,0,1-2.69,2.69,7.85,7.85,0,0,1-2.63.49c-1.49.07-1.94.08-5.73.08s-4.23,0-5.73-.08a7.85,7.85,0,0,1-2.63-.49,4.69,4.69,0,0,1-2.69-2.69,7.84,7.84,0,0,1-.49-2.63c-.07-1.49-.08-1.94-.08-5.73s0-4.23.08-5.73a7.85,7.85,0,0,1,.49-2.63A4.42,4.42,0,0,1,4.82,5,4.39,4.39,0,0,1,6.45,4a7.82,7.82,0,0,1,2.63-.49c1.5-.07,1.94-.08,5.73-.08s4.23,0,5.73.08A7.82,7.82,0,0,1,23.17,4,4.39,4.39,0,0,1,24.8,5a4.39,4.39,0,0,1,1.06,1.63,7.85,7.85,0,0,1,.49,2.63c.07,1.5.08,1.94.08,5.73s0,4.23-.08,5.73m-11.54-13A7.28,7.28,0,1,0,22.09,15a7.28,7.28,0,0,0-7.28-7.28m0,12A4.72,4.72,0,1,1,19.54,15a4.72,4.72,0,0,1-4.73,4.72m7.57-14a1.7,1.7,0,1,0,1.7,1.7,1.7,1.7,0,0,0-1.7-1.7" transform="translate(-0.64 -0.84)"/></svg>