<svg id="Calque_1" data-name="Calque 1" xmlns="http://www.w3.org/2000/svg" viewBox="0 0 73.25 48.13"><defs><style>.cls-1{fill:#1d1d1b;}.cls-2{fill:#3aaa35;}</style></defs><rect class="cls-1" x="28.11" y="20.68" width="0.5" height="10.84"/><rect class="cls-1" x="80.2" y="53.58" width="0.5" height="12.75" transform="translate(-57.9 30.36) rotate(-44.72)"/><rect class="cls-1" x="65.41" y="59.72" width="12.64" height="0.5" transform="translate(-60.39 24.68) rotate(-45)"/><rect class="cls-1" x="45.64" y="20.68" width="0.5" height="10.84"/><rect class="cls-2" x="53.83" y="10.66" width="0.5" height="21.04"/><rect class="cls-2" x="86.52" y="67.67" width="7.47" height="0.5" transform="translate(-61.46 31.72) rotate(-40.72)"/><rect class="cls-2" x="86.52" y="63.54" width="7.47" height="0.5" transform="translate(-58.76 30.72) rotate(-40.72)"/><rect class="cls-2" x="86.68" y="59.74" width="7.47" height="0.5" transform="translate(-56.24 29.9) rotate(-40.72)"/><rect class="cls-2" x="86.43" y="56.64" width="7.47" height="0.5" transform="translate(-54.28 28.99) rotate(-40.72)"/><rect class="cls-2" x="95.47" y="64.37" width="0.5" height="7.47" transform="translate(-59.12 44.02) rotate(-45)"/><rect class="cls-2" x="95.47" y="60.22" width="0.5" height="7.47" transform="translate(-56.18 42.81) rotate(-45)"/><rect class="cls-2" x="95.47" y="56.58" width="0.5" height="7.47" transform="translate(-53.61 41.74) rotate(-45)"/><rect class="cls-2" x="95.54" y="53.36" width="0.5" height="7.47" transform="translate(-51.31 40.85) rotate(-45)"/><rect class="cls-2" x="20.24" y="10.24" width="0.5" height="21.04"/><rect class="cls-2" x="52.92" y="67.25" width="7.47" height="0.5" transform="translate(-69.31 9.7) rotate(-40.72)"/><rect class="cls-2" x="52.92" y="63.11" width="7.47" height="0.5" transform="translate(-66.61 8.7) rotate(-40.72)"/><rect class="cls-2" x="53.08" y="59.32" width="7.47" height="0.5" transform="translate(-64.1 7.88) rotate(-40.72)"/><rect class="cls-2" x="52.83" y="56.22" width="7.47" height="0.5" transform="translate(-62.14 6.97) rotate(-40.72)"/><rect class="cls-2" x="61.87" y="63.95" width="0.5" height="7.47" transform="translate(-68.66 20.15) rotate(-45)"/><rect class="cls-2" x="61.87" y="59.8" width="0.5" height="7.47" transform="translate(-65.72 18.93) rotate(-45)"/><rect class="cls-2" x="61.87" y="56.16" width="0.5" height="7.47" transform="translate(-63.15 17.86) rotate(-45)"/><rect class="cls-2" x="61.95" y="52.93" width="0.5" height="7.47" transform="translate(-60.85 16.97) rotate(-45)"/><path class="cls-1" d="M77.74,67.36H74.5V64.11h3.24ZM75,66.86h2.24V64.61H75Z" transform="translate(-39 -43.61)"/><path d="M83.7,53.33a4.7,4.7,0,0,1-4-2,1,1,0,0,1-.11-.35,1.26,1.26,0,0,1,.33.16,3.35,3.35,0,0,0,3.73.54A3.39,3.39,0,0,0,85.65,49a3.53,3.53,0,0,0-4-4,3.46,3.46,0,0,0-1.66.67l-.11.08a.86.86,0,0,1-.17,0c0-.06,0-.14,0-.18a7.87,7.87,0,0,1,.85-.88,4.8,4.8,0,0,1,7.34,2,4.72,4.72,0,0,1-1.87,5.94A4.12,4.12,0,0,1,83.7,53.33Zm-3-8.35c1.95-.56,3.59-.2,4.68,1.54a3.5,3.5,0,0,1-.1,4.09A3.75,3.75,0,0,1,80.53,52a4.53,4.53,0,0,0,5.92.11A4.57,4.57,0,0,0,80.68,45Z" transform="translate(-39 -43.61)"/><path class="cls-1" d="M83.87,53.46h-.18a4.8,4.8,0,0,1-4.14-2,.68.68,0,0,1-.1-.27l0-.11-.09-.27.26.12.1,0a.91.91,0,0,1,.26.13,3.19,3.19,0,0,0,3.6.52,3.25,3.25,0,0,0,2-2.6,3.41,3.41,0,0,0-1-2.91,3.37,3.37,0,0,0-2.87-1,3.32,3.32,0,0,0-1.6.65l0,0a.36.36,0,0,1-.12.08.58.58,0,0,1-.14,0l-.2,0v-.21a.25.25,0,0,1,.05-.2c.07-.08.15-.16.22-.25a4.62,4.62,0,0,1,4.91-1.5,5,5,0,0,1,1.34,9A4.38,4.38,0,0,1,83.87,53.46Zm1.2-.48a4.69,4.69,0,0,1-1,.23A3.75,3.75,0,0,0,85.07,53Zm-4-.74A4.44,4.44,0,0,0,86.37,52,4.5,4.5,0,0,0,87,45.7a4.34,4.34,0,0,0-3-1.55,4.53,4.53,0,0,0-2.66.56,3.74,3.74,0,0,1,4.2,1.74,3.62,3.62,0,0,1-.1,4.23A3.73,3.73,0,0,1,81.06,52.24Zm-1.34-1a.33.33,0,0,0,0,.06,6,6,0,0,0,.8.86L80.44,52l-.36-.37.49.17.22.07a4.17,4.17,0,0,1-1-.63Zm4.46.31a4.35,4.35,0,0,1-.52.29,4.93,4.93,0,0,1-.67.24A3.11,3.11,0,0,0,84.18,51.54Zm3.73-4.66a4.79,4.79,0,0,1-.42,4.18A4.59,4.59,0,0,0,87.91,46.88Zm-2.24.57a3.71,3.71,0,0,1,0,2.09A3.25,3.25,0,0,0,85.67,47.45Zm-2.6-2.51a3.58,3.58,0,0,1,1.4.71A3.21,3.21,0,0,0,83.07,44.94Zm-2.81.29-.18.2-.08.1a3.77,3.77,0,0,1,.93-.49l-.21.06Zm3.25-1.35.43,0A4.65,4.65,0,0,1,86.6,45a4.41,4.41,0,0,0-1.85-1,4.89,4.89,0,0,0-2.71.1A5.08,5.08,0,0,1,83.51,43.88Z" transform="translate(-39 -43.61)"/><rect class="cls-1" x="10.54" y="31.27" width="54.64" height="0.5"/><path class="cls-1" d="M39.38,78.55a.39.39,0,0,1-.27-.1.33.33,0,0,1-.11-.26.37.37,0,0,1,.19-.33l1.46-1a.49.49,0,0,1,.18,0l.11,0,.07,0,1.47,1a.39.39,0,0,1,.19.33.35.35,0,0,1-.1.26.37.37,0,0,1-.28.1l-.12,0-.1,0-1.24-.82-1.23.82A.38.38,0,0,1,39.38,78.55Zm1.45,10.66a.34.34,0,0,1-.36-.36V80.13a.35.35,0,0,1,.1-.26.4.4,0,0,1,.26-.1.38.38,0,0,1,.26.1.36.36,0,0,1,.11.26v8.72a.36.36,0,0,1-.11.26A.34.34,0,0,1,40.83,89.21Z" transform="translate(-39 -43.61)"/><path class="cls-1" d="M44.82,89.21A1.44,1.44,0,0,1,44,89a1.72,1.72,0,0,1-.55-.71,2.52,2.52,0,0,1-.2-1V80.13a.33.33,0,0,1,.1-.26.35.35,0,0,1,.26-.1.36.36,0,0,1,.27.1.36.36,0,0,1,.09.26v7.09a1.6,1.6,0,0,0,.24.91.7.7,0,0,0,.61.35h.3a.3.3,0,0,1,.22.1.38.38,0,0,1,.09.27.4.4,0,0,1-.1.26.35.35,0,0,1-.27.1Z" transform="translate(-39 -43.61)"/><path class="cls-1" d="M49.32,89.27a3.28,3.28,0,0,1-1.7-.43,3,3,0,0,1-1.17-1.19A3.56,3.56,0,0,1,46,85.91a3.67,3.67,0,0,1,.4-1.75A3,3,0,0,1,47.53,83a3.21,3.21,0,0,1,3.19,0,2.8,2.8,0,0,1,1.07,1.14,3.54,3.54,0,0,1,.39,1.69.32.32,0,0,1-.1.25.35.35,0,0,1-.25.09H46.51V85.5H52l-.53.4a2.93,2.93,0,0,0-.26-1.39,2.33,2.33,0,0,0-.83-1,2.29,2.29,0,0,0-1.26-.34,2.23,2.23,0,0,0-1.23.34,2.45,2.45,0,0,0-.85,1,3.1,3.1,0,0,0-.31,1.4,2.86,2.86,0,0,0,.33,1.39,2.45,2.45,0,0,0,.91,1,2.53,2.53,0,0,0,1.33.34,2.81,2.81,0,0,0,.94-.16A2,2,0,0,0,51,88a.33.33,0,0,1,.24-.1.27.27,0,0,1,.23.08.31.31,0,0,1,.14.24.3.3,0,0,1-.11.24,3.16,3.16,0,0,1-1,.58A3.53,3.53,0,0,1,49.32,89.27Z" transform="translate(-39 -43.61)"/><path class="cls-1" d="M53.23,83.49a.31.31,0,0,1-.32-.32.32.32,0,0,1,.09-.24.32.32,0,0,1,.23-.09h3.28a.32.32,0,0,1,.23.09.32.32,0,0,1,.09.24.31.31,0,0,1-.32.32Zm3.23,5.72a2.48,2.48,0,0,1-1.19-.31,2.2,2.2,0,0,1-.81-.82,2.47,2.47,0,0,1-.29-1.19v-6a.37.37,0,0,1,.11-.27.34.34,0,0,1,.26-.1.34.34,0,0,1,.37.37v6A1.54,1.54,0,0,0,55.35,88a1.48,1.48,0,0,0,1.12.44h.27a.37.37,0,0,1,.27.11.33.33,0,0,1,.1.27.35.35,0,0,1-.1.26.36.36,0,0,1-.27.1Z" transform="translate(-39 -43.61)"/><path class="cls-1" d="M65.18,89.28a3.35,3.35,0,0,1-1.73-.44,3.27,3.27,0,0,1-1.21-1.21,3.41,3.41,0,0,1-.44-1.72,3.45,3.45,0,0,1,.44-1.73A3.2,3.2,0,0,1,63.45,83a3.62,3.62,0,0,1,3.46,0,3.1,3.1,0,0,1,1.2,1.21,3.36,3.36,0,0,1,.45,1.73l-.31.48a2.76,2.76,0,0,1-.4,1.48,3,3,0,0,1-1.09,1A3.16,3.16,0,0,1,65.18,89.28Zm0-.67a2.61,2.61,0,0,0,2.31-1.33,2.7,2.7,0,0,0,.34-1.37,2.74,2.74,0,0,0-.34-1.38,2.61,2.61,0,0,0-2.31-1.33,2.57,2.57,0,0,0-1.35.36,2.6,2.6,0,0,0-.95,1,2.65,2.65,0,0,0-.35,1.38,2.67,2.67,0,0,0,1.3,2.34A2.57,2.57,0,0,0,65.18,88.61Zm3,.6a.37.37,0,0,1-.28-.1.35.35,0,0,1-.1-.26V86.64l.23-.73h.5v2.94a.4.4,0,0,1-.1.26A.33.33,0,0,1,68.21,89.21Z" transform="translate(-39 -43.61)"/><path class="cls-1" d="M74.39,89.21a.35.35,0,0,1-.25-.1.36.36,0,0,1-.11-.26V80.13a.36.36,0,0,1,.11-.26.39.39,0,0,1,.25-.1.38.38,0,0,1,.26.1.36.36,0,0,1,.11.26v8.43h5a.38.38,0,0,1,.27.09.32.32,0,0,1,.09.23.32.32,0,0,1-.09.24.38.38,0,0,1-.27.09Z" transform="translate(-39 -43.61)"/><path class="cls-1" d="M84.5,89.28a3.36,3.36,0,0,1-1.74-.44,3.27,3.27,0,0,1-1.21-1.21,3.41,3.41,0,0,1-.44-1.72,3.45,3.45,0,0,1,.44-1.73A3.2,3.2,0,0,1,82.76,83a3.36,3.36,0,0,1,1.74-.44,3.29,3.29,0,0,1,1.72.44,3.2,3.2,0,0,1,1.21,1.21,3.45,3.45,0,0,1,.44,1.73,3.41,3.41,0,0,1-.44,1.72,3.3,3.3,0,0,1-2.93,1.65Zm0-.67a2.61,2.61,0,0,0,1.36-.36,2.65,2.65,0,0,0,.94-1,2.74,2.74,0,0,0,.34-1.38,2.7,2.7,0,0,0-.34-1.37,2.65,2.65,0,0,0-.94-1,2.66,2.66,0,0,0-3.67,1,2.65,2.65,0,0,0-.35,1.38,2.63,2.63,0,0,0,2.66,2.7Z" transform="translate(-39 -43.61)"/><path class="cls-1" d="M92.7,89.28A3.35,3.35,0,0,1,91,88.84a3.2,3.2,0,0,1-1.21-1.21,3.62,3.62,0,0,1,0-3.46A3.17,3.17,0,0,1,91,83a3.35,3.35,0,0,1,1.73-.44,3.28,3.28,0,0,1,1.57.37,2.9,2.9,0,0,1,1.08,1V80.13a.33.33,0,0,1,.1-.26.35.35,0,0,1,.26-.1.36.36,0,0,1,.27.1.36.36,0,0,1,.09.26V86a3.32,3.32,0,0,1-1.66,2.88A3.34,3.34,0,0,1,92.7,89.28Zm0-.67A2.57,2.57,0,0,0,95,87.28a2.9,2.9,0,0,0,0-2.76,2.62,2.62,0,0,0-.94-1,2.73,2.73,0,0,0-2.71,0,2.76,2.76,0,0,0-1,1,2.74,2.74,0,0,0,1,3.73A2.57,2.57,0,0,0,92.7,88.61Z" transform="translate(-39 -43.61)"/><path class="cls-1" d="M101.27,89.28a3.47,3.47,0,0,1-1.75-.43,3.14,3.14,0,0,1-1.2-1.2,3.72,3.72,0,0,1,0-3.49A3.27,3.27,0,0,1,99.55,83a3.41,3.41,0,0,1,1.72-.43A3.47,3.47,0,0,1,103,83a3.19,3.19,0,0,1,1.19,1.2,3.47,3.47,0,0,1,.43,1.75l-.42.48a2.93,2.93,0,0,1-.38,1.5,2.53,2.53,0,0,1-1,1A3.11,3.11,0,0,1,101.27,89.28Zm0,2.46a3.6,3.6,0,0,1-1.71-.38,3.79,3.79,0,0,1-1.17-1,.43.43,0,0,1-.09-.26.29.29,0,0,1,.12-.23.43.43,0,0,1,.28-.06A.36.36,0,0,1,99,90a2.93,2.93,0,0,0,1,.74,3,3,0,0,0,1.37.3,2.48,2.48,0,0,0,1.33-.36,2.63,2.63,0,0,0,.93-1,3,3,0,0,0,.34-1.42V86.36l.32-.45h.4v2.37a3.56,3.56,0,0,1-.43,1.76,3.25,3.25,0,0,1-2.89,1.7Zm0-3.13a2.68,2.68,0,0,0,1.37-.35,2.52,2.52,0,0,0,.94-1,3.07,3.07,0,0,0,0-2.81,2.52,2.52,0,0,0-.94-1,2.68,2.68,0,0,0-1.37-.35,2.75,2.75,0,0,0-1.38.35,2.52,2.52,0,0,0-.94,1,3.07,3.07,0,0,0,0,2.81,2.52,2.52,0,0,0,.94,1A2.75,2.75,0,0,0,101.27,88.61Z" transform="translate(-39 -43.61)"/><path class="cls-1" d="M109.38,89.27a3.31,3.31,0,0,1-1.7-.43,3,3,0,0,1-1.16-1.19,3.45,3.45,0,0,1-.43-1.74,3.79,3.79,0,0,1,.4-1.75,3.08,3.08,0,0,1,1.1-1.19,3.21,3.21,0,0,1,3.19,0,2.89,2.89,0,0,1,1.08,1.14,3.66,3.66,0,0,1,.38,1.69.35.35,0,0,1-.09.25.37.37,0,0,1-.26.09h-5.31V85.5h5.51l-.53.4a3.06,3.06,0,0,0-.27-1.39,2.26,2.26,0,0,0-.83-1,2.29,2.29,0,0,0-1.26-.34,2.23,2.23,0,0,0-1.23.34,2.35,2.35,0,0,0-.84,1,3.25,3.25,0,0,0,0,2.79,2.45,2.45,0,0,0,.91,1,2.56,2.56,0,0,0,1.33.34,2.92,2.92,0,0,0,1-.16,1.93,1.93,0,0,0,.75-.43.37.37,0,0,1,.24-.1.31.31,0,0,1,.24.08.33.33,0,0,1,.13.24.27.27,0,0,1-.11.24,3.16,3.16,0,0,1-1,.58A3.48,3.48,0,0,1,109.38,89.27Z" transform="translate(-39 -43.61)"/><rect class="cls-1" x="33.54" y="27.18" width="0.5" height="4.56"/><rect class="cls-1" x="39.64" y="27.15" width="0.5" height="4.56"/><rect class="cls-1" x="33.55" y="27.02" width="6.59" height="0.5"/></svg>